<svg width="186" height="398" viewBox="0 0 186 398" fill="none" xmlns="http://www.w3.org/2000/svg">
<path d="M124.88 390.07C123.399 389.54 122.001 389.112 120.662 388.541C111.22 384.495 101.784 380.434 92.3537 376.357C86.4301 373.805 80.471 371.288 74.5533 368.712C66.2603 365.089 57.9674 361.389 49.627 357.783C44.6867 355.642 39.6813 353.661 34.7411 351.525C28.2251 348.705 21.7092 345.802 15.2348 342.934C14.986 342.827 14.7372 342.702 14.4825 342.595C13.1141 342 12.9897 341.405 14.0856 340.364C15.8627 338.627 17.699 336.914 19.5234 335.212C25.2456 329.87 30.9717 324.536 36.7018 319.209C38.7335 317.323 40.8483 315.544 42.9215 313.688C43.0809 313.525 43.2907 313.421 43.5166 313.393C43.7425 313.365 43.9712 313.414 44.1654 313.533C48.0158 315.169 51.8661 316.746 55.7223 318.412C62.9432 321.541 70.1225 324.766 77.3611 327.853C79.9557 328.96 79.4225 329.216 80.6013 326.568C84.1554 318.636 87.6721 310.682 91.1512 302.706C93.6687 296.947 96.05 291.129 98.5497 285.358C101.192 279.278 103.928 273.24 106.57 267.16C109.609 260.181 112.589 253.173 115.598 246.183C118.607 239.193 121.604 232.256 124.631 225.301C127.364 219.027 130.112 212.76 132.877 206.502C132.989 206.246 133.12 206.002 133.25 205.752C133.967 204.39 133.967 204.39 135.507 205.056C134.914 206.561 134.322 208.078 133.7 209.578C131.651 214.462 129.631 219.37 127.51 224.224C124.418 231.31 121.225 238.348 118.115 245.421C116.551 248.991 115.088 252.56 113.548 256.13C110.995 262.079 108.407 267.963 105.848 273.888C102.951 280.599 100.09 287.327 97.1636 294.026C93.6095 302.188 89.9428 310.315 86.3827 318.477C83.729 324.557 81.164 330.673 78.5577 336.765C78.3503 337.247 78.1193 337.723 77.8883 338.193C77.6573 338.663 77.4618 339.073 76.8517 338.788C76.2416 338.502 75.8269 338.151 76.1172 337.419C76.7095 336.015 77.2604 334.623 77.8291 333.255C78.1904 332.38 78.5399 331.506 78.9072 330.596C74.8614 328.811 70.9281 327.11 66.9771 325.408C60.0465 322.433 53.114 319.471 46.1795 316.52C45.3739 316.175 44.4972 315.503 43.7567 315.628C43.0163 315.753 42.495 316.71 41.8612 317.299C38.9902 319.953 36.1153 322.606 33.2365 325.259C32.9012 325.506 32.5466 325.725 32.1762 325.914L47.5774 332.505C51.7595 334.29 55.9593 336.075 60.1235 337.86C65.4192 340.18 70.6793 342.619 75.9809 344.892C81.1463 347.128 86.3649 349.234 91.5244 351.477C96.9741 353.857 102.359 356.338 107.802 358.712C111.89 360.496 116.024 362.162 120.141 363.893C120.704 364.131 121.261 364.393 121.817 364.649C122.552 364.982 122.807 364.857 122.807 364.054C122.807 359.515 122.807 354.969 122.807 350.424C122.807 349.603 122.214 349.389 121.687 349.145C119.093 348.003 116.496 346.873 113.898 345.754C106.789 342.688 99.6989 339.629 92.6261 336.575C91.1038 335.908 89.5696 335.242 88.1242 334.439C87.2357 333.939 86.9395 334.284 86.6196 335.034C85.7193 337.068 84.7952 339.085 83.8711 341.108C83.8098 341.226 83.7405 341.339 83.6638 341.447C83.4268 341.399 83.1958 341.364 82.9648 341.31C82.2599 341.138 82.0052 340.793 82.331 340.043C83.8711 336.545 85.3935 333.037 86.8981 329.519C89.5992 323.231 92.2648 316.93 94.9896 310.648C97.5901 304.657 100.268 298.696 102.868 292.699C105.794 285.941 108.632 279.141 111.57 272.383C114.277 266.166 117.102 259.997 119.809 253.78C121.906 248.979 123.861 244.113 125.952 239.312C128.872 232.613 131.876 225.95 134.837 219.263C136.395 215.693 137.87 212.124 139.405 208.554C139.902 207.4 140.21 207.257 141.182 207.507C141.774 207.656 141.904 207.959 141.656 208.53C139.803 212.754 137.961 216.986 136.129 221.226C133.475 227.372 130.875 233.541 128.191 239.668C124.371 248.402 120.491 257.094 116.664 265.845C113.057 274.132 109.556 282.461 106.002 290.76C102.649 298.553 99.2803 306.337 95.896 314.111C93.7872 318.947 91.6132 323.748 89.4748 328.573C88.9298 329.81 88.4264 331.072 87.8755 332.392C88.0826 332.522 88.2961 332.641 88.5152 332.749L110.551 342.22C114.561 343.946 118.589 345.641 122.599 347.372C124.969 348.402 124.969 348.425 124.969 351.001C124.969 363.649 124.985 376.295 125.016 388.939C124.933 389.243 124.88 389.546 124.88 390.07ZM93.5384 354.851C93.3708 354.624 93.1713 354.424 92.946 354.256C92.1878 353.851 91.394 353.512 90.624 353.131C89.9961 352.822 89.6348 352.917 89.386 353.649C87.5852 359.055 85.7627 364.456 83.9185 369.854C83.7526 370.342 83.8652 370.568 84.3569 370.747C85.4527 371.145 86.519 371.621 87.6089 372.038C88.8232 372.496 88.8588 372.49 89.1905 371.264C90.4344 366.656 91.6685 362.041 92.8927 357.421C93.0941 356.623 93.2896 355.82 93.5384 354.851ZM49.9528 355.856C51.2619 356.415 52.4585 356.826 53.5543 357.421C54.4547 357.908 54.8871 357.694 55.3728 356.873C58.1964 352.114 61.0496 347.355 63.9324 342.595C64.2582 342.06 64.116 341.834 63.6244 341.614C62.8662 341.28 62.0961 340.947 61.3734 340.543C60.6507 340.138 60.1887 340.233 59.7089 340.977C56.6642 345.617 53.5721 350.222 50.4977 354.851C50.299 355.176 50.1171 355.512 49.9528 355.856ZM105.344 360.258C105.1 359.921 104.815 359.616 104.497 359.348C104.071 359.107 103.622 358.908 103.158 358.753C101.298 357.92 101.316 357.926 100.907 359.943C100.347 362.759 99.766 365.567 99.1658 368.367C98.6504 370.747 98.1114 373.186 97.5723 375.589C97.4776 376.03 97.3531 376.434 97.9218 376.666C99.1065 377.154 100.291 377.654 101.476 378.177C102.068 378.451 102.388 378.397 102.507 377.582C103.099 373.805 103.691 370.033 104.319 366.279C104.639 364.357 104.971 362.442 105.332 360.24L105.344 360.258ZM74.9502 366.564C75.1609 366.309 75.3436 366.032 75.4952 365.738C76.5911 363.054 77.6869 360.383 78.7354 357.676C79.6713 355.261 80.5599 352.834 81.4247 350.395C81.4671 350.241 81.4715 350.08 81.4374 349.924C81.4033 349.768 81.3318 349.624 81.2292 349.502C80.3762 348.955 79.4521 348.503 78.5636 348.021C78.1253 347.789 77.8587 347.89 77.6336 348.378C75.3905 353.248 73.1317 358.121 70.857 362.995C70.1699 364.458 70.1344 364.47 71.5738 365.143C72.6282 365.607 73.7181 366.035 74.9502 366.564ZM63.5355 361.656C64.9868 362.251 66.2603 362.811 67.5161 363.388C68.1381 363.673 68.4343 363.53 68.7008 362.9C69.465 361.115 70.3002 359.425 71.0999 357.688C72.5867 354.47 74.0617 351.245 75.5603 348.033C75.8388 347.438 75.7558 347.051 75.1516 346.766C74.3401 346.385 73.5404 345.992 72.7822 345.576C72.1898 345.237 71.8581 345.338 71.5264 346.01C69.6486 349.764 67.7116 353.482 65.8042 357.218C65.052 358.67 64.2937 360.151 63.5355 361.65V361.656ZM119.182 365.44C119.11 366.035 119.051 366.416 119.027 366.773C118.862 369.152 118.714 371.532 118.536 373.912C118.283 377.334 118.015 380.751 117.73 384.162C117.674 384.433 117.724 384.715 117.87 384.95C118.015 385.185 118.245 385.354 118.512 385.423C119.697 385.899 120.882 386.453 122.066 386.946C122.369 387.027 122.678 387.081 122.99 387.107C122.99 386.631 122.99 386.298 122.99 385.959C122.937 384.138 122.854 382.318 122.819 380.497C122.742 376.446 122.7 372.401 122.617 368.355C122.617 367.98 122.546 367.433 122.309 367.272C121.379 366.606 120.366 366.1 119.182 365.434V365.44ZM29.5757 347.063C30.9618 347.587 32.2117 348.003 33.4023 348.538C33.5292 348.619 33.6709 348.673 33.8191 348.698C33.9672 348.722 34.1187 348.716 34.2646 348.681C34.4105 348.645 34.5478 348.581 34.6683 348.491C34.7888 348.401 34.8901 348.288 34.9662 348.158C38.6565 343.732 42.3765 339.335 46.0787 334.921C46.2047 334.735 46.31 334.535 46.3927 334.326L42.572 332.607L29.5757 347.063ZM61.2786 360.71C61.5423 360.469 61.7769 360.198 61.9776 359.901C64.3826 355.317 66.7757 350.724 69.157 346.123C69.9804 344.535 69.9685 344.529 68.3454 343.696C68.0053 343.553 67.6731 343.392 67.3503 343.214C66.6454 342.75 66.2189 342.958 65.8042 343.66C63.9561 346.762 62.0862 349.847 60.1946 352.917C59.1639 354.595 58.0562 356.231 57.0314 357.92C56.8834 358.164 56.9071 358.831 57.0314 358.896C58.3702 359.527 59.7207 360.068 61.2786 360.71ZM99.3079 357.385C99.1243 357.183 98.9525 356.879 98.7156 356.748C98.1108 356.444 97.4876 356.177 96.8496 355.951C95.6649 355.511 95.6057 355.511 95.2621 356.742C93.7773 362.12 92.3122 367.502 90.8669 372.888C90.8653 373.064 90.9072 373.236 90.989 373.391C91.0707 373.546 91.1895 373.678 91.3348 373.775C92.2944 374.257 93.3014 374.637 94.2966 375.042C95.2917 375.447 95.4339 375.381 95.6709 374.328C96.4883 370.628 97.2979 366.925 98.0995 363.221C98.4964 361.323 98.8814 359.425 99.3079 357.385ZM58.3583 339.198C57.1381 338.764 56.0896 338.419 55.0708 338.008C54.9652 337.95 54.849 337.914 54.7292 337.903C54.6094 337.891 54.4885 337.904 54.3739 337.941C54.2592 337.977 54.1532 338.037 54.0622 338.116C53.9712 338.195 53.8972 338.292 53.8446 338.401C51.7753 341.276 49.6862 344.132 47.5774 346.968C46.3276 348.651 45.0007 350.27 43.7449 351.941C43.117 352.774 43.194 352.959 44.1477 353.328C45.1014 353.696 46.0195 353.922 46.9021 354.351C47.7847 354.779 48.229 354.41 48.6792 353.702C50.6162 350.781 52.6065 347.89 54.5554 344.975C55.823 343.089 57.0314 341.203 58.3583 339.198ZM87.5615 352.334C87.375 352.139 87.1662 351.968 86.9395 351.822C86.2346 351.454 85.4823 351.162 84.7893 350.763C84.0962 350.365 83.7349 350.514 83.4505 351.299C82.3902 354.196 81.2647 357.07 80.157 359.949C79.2922 362.192 78.38 364.429 77.5388 366.672C77.3789 367.094 77.1242 367.534 77.8113 367.808C78.8361 368.218 79.849 368.67 80.8442 369.152C81.5313 369.485 81.9223 369.444 82.2007 368.605C83.7586 363.899 85.3698 359.205 86.9395 354.505C87.1528 353.833 87.3127 353.143 87.5615 352.334ZM22.5207 343.821L22.8347 344.172C24.1912 344.731 25.5654 345.266 26.9042 345.867C27.461 346.117 27.7335 345.992 28.1363 345.54C31.2817 341.971 34.4686 338.472 37.6555 334.951C38.5973 333.915 39.5628 332.904 40.5698 331.827C39.474 331.304 38.467 330.852 37.4896 330.346C37.3178 330.224 37.1054 330.175 36.8981 330.21C36.6908 330.244 36.5054 330.36 36.3819 330.53C32.5829 334.286 28.7721 338.02 24.9494 341.733C24.1793 342.476 23.3086 343.125 22.497 343.821H22.5207ZM52.3992 336.682C51.4556 336.4 50.5314 336.056 49.6329 335.653C49.4968 335.554 49.3415 335.486 49.1773 335.453C49.0131 335.419 48.8436 335.421 48.6801 335.458C48.5166 335.495 48.3629 335.567 48.2289 335.668C48.095 335.769 47.984 335.898 47.9032 336.045C44.4083 340.261 40.9075 344.477 37.4007 348.693C37.1164 349.038 36.8913 349.425 36.6129 349.823L41.2511 351.977L52.3992 336.682ZM111.043 363.376C110.995 362.239 111.001 362.233 110.041 361.692C109.64 361.471 109.227 361.273 108.803 361.097C107.583 360.574 107.482 360.603 107.245 361.906C106.673 365.032 106.118 368.159 105.581 371.288C105.196 373.537 104.846 375.792 104.485 378.046C104.361 378.802 104.42 379.403 105.362 379.671C106.263 379.979 107.143 380.345 107.998 380.765C108.91 381.17 109.082 381.057 109.183 380.027C109.479 377.251 109.779 374.493 110.083 371.752C110.361 368.944 110.663 366.178 111.001 363.388L111.043 363.376ZM115.781 384.281C115.864 383.288 115.935 382.592 115.983 381.901C116.078 380.236 116.155 378.576 116.255 376.91C116.486 373.186 116.729 369.462 116.942 365.738C116.942 365.434 116.859 364.958 116.652 364.833C115.639 364.238 114.573 363.733 113.436 363.15C113.325 363.477 113.236 363.81 113.169 364.149C112.95 365.892 112.719 367.635 112.547 369.384C112.209 372.817 111.955 376.262 111.564 379.688C111.274 382.187 111.197 382.169 113.489 383.151C114.182 383.46 114.869 383.817 115.764 384.293L115.781 384.281ZM34.7115 329.394C34.6726 329.342 34.6243 329.297 34.5693 329.263L32.4309 328.186C31.0981 327.502 31.0684 327.472 29.937 328.525C26.5784 331.643 23.2434 334.796 19.867 337.919C18.6822 339.002 17.4976 340.043 16.1588 341.274L19.713 342.607C20.0393 342.746 20.4011 342.777 20.7461 342.696C21.0911 342.614 21.4014 342.425 21.6322 342.155C25.986 337.913 30.3221 333.683 34.7115 329.394Z" fill="#DE2180"/>
<path d="M138.108 158.105C137.906 156.951 137.657 155.726 137.462 154.441C136.455 147.896 135.483 141.317 134.453 134.761C133.073 125.95 131.627 117.145 130.241 108.334C128.036 94.3712 126.367 80.3283 124.051 66.3749C123.08 60.4257 122.116 54.4944 121.16 48.5809C120.189 42.5128 119.229 36.4446 118.281 30.3764C117.31 24.221 116.344 18.0616 115.385 11.8983C115.201 10.7085 115.124 10.643 113.987 10.8929C113.14 11.0773 112.305 11.2915 111.458 11.4462C111.318 11.4533 111.181 11.492 111.058 11.5594C110.936 11.6269 110.829 11.7213 110.748 11.8357C110.667 11.9501 110.612 12.0815 110.588 12.2201C110.564 12.3586 110.572 12.5008 110.61 12.636C110.658 13.0643 110.717 13.4986 110.788 13.921C111.444 17.9942 112.103 22.0674 112.767 26.1406C113.359 29.7101 113.951 33.3153 114.502 36.9086C114.994 40.1747 115.355 43.4527 115.865 46.7248C116.925 53.5544 118.045 60.3781 119.129 67.2018C120.009 72.7227 120.878 78.2415 121.735 83.7584C122.221 86.9293 122.635 90.1062 123.139 93.2771C123.779 97.2571 124.489 101.225 125.135 105.205C125.461 107.234 125.674 109.28 125.994 111.309C126.332 113.433 126.752 115.545 127.09 117.669C127.487 120.138 127.818 122.612 128.186 125.081C128.636 128.104 129.104 131.12 129.554 134.142C130.403 139.845 131.248 145.553 132.089 151.264C132.415 153.459 132.735 155.66 133.031 157.861C133.227 159.265 133.15 159.331 131.568 159.295C131.361 158.468 131.1 157.617 130.934 156.749C127.09 127.312 115.932 63.4691 109.319 16.8599C109.011 14.6647 108.679 12.4694 108.348 10.1909C108.594 10.0799 108.85 9.99036 109.112 9.92317C111.327 9.58406 113.549 9.27471 115.77 8.92966C116.416 8.82852 116.694 8.99509 116.806 9.6971C117.636 14.8134 118.512 19.9178 119.36 25.0341C119.999 28.8653 120.627 32.7006 121.243 36.5398C122.155 42.2391 123.056 47.9404 123.944 53.6437C125.342 62.5674 126.758 71.4912 128.126 80.4447C128.985 86.031 129.738 91.6292 130.591 97.2095C131.675 104.319 132.8 111.416 133.92 118.519C135.278 127.086 136.643 135.651 138.013 144.214C138.657 148.295 139.308 152.376 139.968 156.457C140.133 157.498 139.968 157.647 138.967 157.647C138.736 157.653 138.505 157.903 138.108 158.105Z" fill="#DE2180"/>
<path d="M151.779 209.274C151.728 208.757 151.738 208.236 151.809 207.721C151.881 207.572 151.985 207.442 152.115 207.339C152.244 207.236 152.394 207.163 152.555 207.126C154.759 206.704 156.962 206.329 159.172 205.937C161.869 205.481 164.566 205.032 167.263 204.592C167.737 204.515 168.229 204.509 168.685 204.473C169.123 205.841 168.999 206.258 167.743 206.466C163.004 207.359 158.319 208.179 153.603 209.018C153.041 209.131 152.466 209.185 151.779 209.274Z" fill="#DE2180"/>
<path d="M149.872 199.065C149.167 197.281 149.179 197.191 150.648 196.091C154.435 193.223 158.224 190.366 162.015 187.518C162.163 187.405 162.317 187.304 162.465 187.197C162.951 186.864 163.419 186.477 163.934 187.197C164.449 187.917 163.97 188.285 163.519 188.666C162.376 189.648 161.233 190.641 160.042 191.563C157.501 193.533 154.942 195.466 152.342 197.394C151.589 197.953 150.754 198.47 149.872 199.065Z" fill="#DE2180"/>
<path d="M132.463 184.662C131.201 183.294 131.775 182.015 132.06 180.784C132.85 177.365 133.665 173.95 134.506 170.539C134.735 169.578 135.046 168.638 135.436 167.731C135.596 167.368 136.1 167.136 136.449 166.88C136.591 167.279 136.893 167.707 136.846 168.07C136.639 169.563 136.372 171.045 136.046 172.532C135.324 175.757 134.565 178.969 133.801 182.182C133.678 182.723 133.494 183.248 133.25 183.746C133.028 184.084 132.763 184.392 132.463 184.662Z" fill="#DE2180"/>
<path d="M125.574 169.212L116.76 177.28C115.942 178.023 115.142 178.791 114.301 179.51C114.129 179.659 113.827 179.653 113.584 179.719C113.525 179.475 113.454 179.231 113.413 178.987C113.37 178.812 113.356 178.631 113.371 178.452C113.448 178.017 113.425 177.44 113.691 177.196C116.155 174.876 118.667 172.615 121.173 170.343C121.636 169.879 122.14 169.457 122.677 169.082C123.358 168.647 124.093 168.142 124.881 168.974C125.011 169.105 125.272 169.111 125.574 169.212Z" fill="#DE2180"/>
<path d="M149.991 174.727C151.176 174.828 151.389 175.197 150.885 176.197C149.215 179.493 147.521 182.777 145.838 186.066C145.625 186.477 145.436 186.899 145.187 187.256C145.098 187.393 144.861 187.429 144.689 187.512C144.612 187.334 144.446 187.137 144.47 186.983C144.524 186.589 144.648 186.208 144.837 185.858C145.4 184.954 145.957 184.073 145.288 182.979C145.245 182.853 145.23 182.719 145.243 182.587C145.257 182.454 145.298 182.326 145.365 182.211C146.66 179.903 147.977 177.607 149.316 175.322C149.505 175.086 149.733 174.885 149.991 174.727Z" fill="#DE2180"/>
<path d="M129.82 196.109C128.636 195.407 127.303 195.157 126.1 194.205C126.195 194.639 126.254 194.895 126.337 195.264C126.053 195.199 125.852 195.21 125.745 195.115C123.751 193.529 121.76 191.942 119.774 190.356C119.241 189.928 118.998 189.416 119.638 188.916C119.768 188.83 119.918 188.776 120.073 188.758C120.228 188.741 120.386 188.76 120.532 188.815C122.309 190.106 124.086 191.445 125.863 192.777C127.238 193.808 128.608 194.846 129.974 195.889L129.82 196.109Z" fill="#DE2180"/>
<path d="M143.286 190.85H142.101L142.06 190.564L143.28 190.392L143.286 190.85Z" fill="#DE2180"/>
<path d="M93.5391 354.851C93.2903 355.82 93.0948 356.635 92.8756 357.427C91.6475 362.043 90.4134 366.658 89.1734 371.27C88.8417 372.496 88.8061 372.502 87.5918 372.044C86.5019 371.627 85.4356 371.151 84.3398 370.753C83.8481 370.574 83.7474 370.348 83.9014 369.86C85.7377 364.458 87.5602 359.057 89.3689 353.655C89.6177 352.923 89.9612 352.828 90.6069 353.137C91.377 353.518 92.1707 353.857 92.9289 354.262C93.16 354.427 93.3656 354.625 93.5391 354.851Z" fill="white"/>
<path d="M49.9531 355.856C50.1173 355.509 50.2992 355.172 50.4981 354.844C53.5724 350.216 56.6645 345.611 59.7092 340.971C60.2009 340.227 60.6451 340.138 61.3737 340.537C62.1023 340.935 62.8665 341.274 63.6247 341.608C64.1164 341.828 64.2585 342.054 63.9327 342.589C61.0618 347.349 58.2086 352.108 55.3732 356.867C54.8874 357.688 54.455 357.902 53.5547 357.415C52.4588 356.808 51.2622 356.397 49.9531 355.856Z" fill="white"/>
<path d="M105.333 360.241C104.96 362.442 104.628 364.357 104.314 366.273C103.722 370.045 103.07 373.817 102.502 377.577C102.383 378.362 102.093 378.415 101.471 378.171C100.286 377.648 99.1015 377.148 97.9168 376.66C97.3245 376.428 97.4726 376.024 97.5673 375.584C98.1064 373.204 98.6454 370.771 99.1608 368.361C99.7571 365.557 100.338 362.749 100.902 359.937C101.311 357.903 101.293 357.897 103.153 358.747C103.617 358.902 104.066 359.101 104.492 359.342C104.807 359.606 105.09 359.908 105.333 360.241Z" fill="white"/>
<path d="M74.9506 366.564C73.7185 366.041 72.6286 365.613 71.5742 365.119C70.1348 364.447 70.1703 364.435 70.8574 362.971C73.1321 358.117 75.3909 353.252 77.634 348.378C77.8591 347.89 78.1257 347.783 78.564 348.021C79.4585 348.503 80.3766 348.955 81.2296 349.502C81.3322 349.624 81.4037 349.768 81.4378 349.924C81.4719 350.08 81.4675 350.241 81.4251 350.395C80.5603 352.834 79.648 355.261 78.7358 357.676C77.6873 360.377 76.5915 363.031 75.4956 365.737C75.344 366.032 75.1613 366.309 74.9506 366.564Z" fill="white"/>
<path d="M63.5361 361.65C64.2943 360.151 65.0407 358.676 65.793 357.201C67.7004 353.464 69.6374 349.746 71.5152 345.992C71.8469 345.32 72.1549 345.219 72.771 345.558C73.5529 345.986 74.3526 346.379 75.1404 346.748C75.7328 347.033 75.8275 347.414 75.5491 348.015C74.0445 351.228 72.5873 354.452 71.0887 357.67C70.289 359.408 69.4538 361.127 68.6896 362.882C68.4112 363.513 68.0973 363.655 67.5049 363.37C66.2373 362.805 64.9874 362.275 63.5361 361.65Z" fill="white"/>
<path d="M119.183 365.434C120.367 366.101 121.38 366.624 122.316 367.219C122.553 367.38 122.618 367.927 122.624 368.302C122.707 372.347 122.749 376.393 122.826 380.444C122.861 382.264 122.944 384.085 122.997 385.905C122.997 386.244 122.997 386.578 122.997 387.054C122.685 387.028 122.376 386.974 122.073 386.893C120.889 386.399 119.704 385.846 118.519 385.37C118.252 385.301 118.022 385.131 117.877 384.896C117.731 384.662 117.681 384.38 117.737 384.109C118.022 380.694 118.29 377.277 118.543 373.858C118.72 371.479 118.869 369.099 119.034 366.719C119.052 366.41 119.111 366.053 119.183 365.434Z" fill="white"/>
<path d="M29.5762 347.063L42.5725 332.595L46.3932 334.314C46.3104 334.523 46.2052 334.723 46.0792 334.909C42.377 339.323 38.657 343.72 34.9666 348.146C34.8906 348.276 34.7893 348.389 34.6688 348.479C34.5482 348.569 34.411 348.634 34.2651 348.669C34.1192 348.705 33.9677 348.71 33.8195 348.686C33.6714 348.661 33.5297 348.607 33.4028 348.527C32.2122 348.003 30.9623 347.587 29.5762 347.063Z" fill="white"/>
<path d="M61.2788 360.711C59.7386 360.068 58.3703 359.521 57.0375 358.926C56.9072 358.86 56.8835 358.194 57.0375 357.95C58.0622 356.261 59.17 354.625 60.2007 352.947C62.0923 349.873 63.9622 346.787 65.8103 343.69C66.225 342.988 66.6514 342.78 67.3564 343.244C67.6792 343.422 68.0114 343.583 68.3515 343.726C69.9746 344.558 69.9864 344.564 69.163 346.153C66.7936 350.754 64.4005 355.346 61.9837 359.931C61.7793 360.217 61.5427 360.479 61.2788 360.711Z" fill="white"/>
<path d="M99.3085 357.385C98.882 359.419 98.4969 361.323 98.0882 363.221C97.2984 366.929 96.4888 370.632 95.6595 374.328C95.4226 375.381 95.2804 375.447 94.2852 375.042C93.2901 374.637 92.2772 374.257 91.3235 373.775C91.1782 373.678 91.0593 373.546 90.9776 373.391C90.8959 373.236 90.8539 373.064 90.8555 372.888C92.2851 367.483 93.7541 362.101 95.2626 356.742C95.6062 355.511 95.6418 355.511 96.8502 355.951C97.4881 356.177 98.1113 356.444 98.7161 356.748C98.953 356.879 99.1248 357.183 99.3085 357.385Z" fill="white"/>
<path d="M58.3583 339.198C57.0314 341.233 55.823 343.119 54.579 344.981C52.6302 347.896 50.6399 350.787 48.7029 353.708C48.229 354.416 47.7788 354.761 46.9258 354.357C46.0728 353.952 45.0895 353.684 44.1713 353.333C43.2532 352.982 43.1406 352.78 43.7685 351.947C45.0243 350.276 46.3512 348.657 47.6011 346.974C49.7178 344.138 51.8068 341.282 53.8682 338.407C53.9208 338.298 53.9948 338.201 54.0858 338.122C54.1768 338.043 54.2829 337.983 54.3975 337.947C54.5122 337.91 54.6331 337.897 54.7529 337.909C54.8727 337.92 54.9888 337.956 55.0944 338.014C56.0896 338.389 57.138 338.734 58.3583 339.198Z" fill="white"/>
<path d="M87.5622 352.334C87.3371 353.143 87.1772 353.833 86.9698 354.506C85.3882 359.205 83.777 363.899 82.231 368.605C81.9526 369.444 81.5616 369.486 80.8745 369.152C79.8793 368.671 78.8664 368.218 77.8416 367.808C77.1545 367.534 77.4092 367.094 77.5691 366.672C78.434 364.429 79.3462 362.192 80.1873 359.949C81.295 357.07 82.4205 354.196 83.4808 351.299C83.7652 350.514 84.1028 350.359 84.8196 350.764C85.5363 351.168 86.2649 351.454 86.9698 351.822C87.1862 351.97 87.3849 352.141 87.5622 352.334Z" fill="white"/>
<path d="M22.498 343.821C23.3096 343.125 24.1626 342.476 24.9267 341.733C28.7534 338.016 32.5642 334.282 36.3592 330.53C36.4827 330.36 36.6681 330.245 36.8754 330.21C37.0827 330.176 37.2952 330.224 37.4669 330.346C38.4443 330.852 39.4513 331.304 40.5472 331.827C39.5402 332.904 38.5746 333.915 37.6328 334.951C34.4459 338.472 31.259 341.988 28.1136 345.54C27.7108 345.992 27.4383 346.135 26.8815 345.867C25.5428 345.272 24.1685 344.731 22.812 344.172L22.498 343.821Z" fill="white"/>
<path d="M52.3768 336.694L41.2287 351.989L36.6201 349.835C36.8985 349.437 37.1236 349.05 37.408 348.705C40.9108 344.489 44.4116 340.273 47.9104 336.057C47.9912 335.91 48.1022 335.781 48.2362 335.68C48.3701 335.579 48.5238 335.507 48.6873 335.47C48.8508 335.433 49.0202 335.431 49.1845 335.465C49.3487 335.498 49.504 335.566 49.6401 335.664C50.529 336.067 51.4432 336.411 52.3768 336.694Z" fill="white"/>
<path d="M111.002 363.388C110.688 366.178 110.362 368.962 110.048 371.752C109.734 374.542 109.456 377.267 109.148 380.027C109.041 381.057 108.869 381.17 107.963 380.765C107.111 380.339 106.232 379.967 105.333 379.653C104.391 379.385 104.332 378.784 104.456 378.029C104.818 375.774 105.167 373.519 105.552 371.27C106.089 368.141 106.644 365.014 107.217 361.888C107.454 360.586 107.554 360.556 108.775 361.079C109.198 361.255 109.611 361.453 110.013 361.674C110.96 362.245 110.955 362.251 111.002 363.388Z" fill="white"/>
<path d="M115.764 384.293C114.87 383.841 114.183 383.46 113.472 383.151C111.179 382.169 111.256 382.187 111.547 379.688C111.944 376.262 112.192 372.817 112.53 369.384C112.702 367.635 112.933 365.892 113.152 364.149C113.219 363.81 113.308 363.477 113.419 363.15C114.556 363.745 115.622 364.238 116.635 364.833C116.842 364.958 116.943 365.428 116.925 365.738C116.712 369.462 116.469 373.186 116.238 376.91C116.137 378.576 116.06 380.236 115.966 381.901C115.918 382.627 115.847 383.3 115.764 384.293Z" fill="white"/>
<path d="M34.7123 329.394C30.3229 333.683 25.9869 337.913 21.6804 342.155C21.4496 342.425 21.1393 342.615 20.7943 342.696C20.4493 342.777 20.0875 342.746 19.7612 342.607L16.207 341.275C17.5695 340.043 18.7542 339.002 19.9152 337.919C23.2679 334.796 26.6029 331.643 29.9853 328.526C31.1167 327.473 31.17 327.502 32.4791 328.186L34.6175 329.263C34.6556 329.302 34.6876 329.346 34.7123 329.394Z" fill="white"/>
</svg>
