<svg width="72" height="64" viewBox="0 0 72 64" fill="none" xmlns="http://www.w3.org/2000/svg">
<path fill-rule="evenodd" clip-rule="evenodd" d="M51.1609 0.482935C52.0496 0.491409 52.9204 0.734339 53.6858 1.18731C54.4512 1.64027 55.0843 2.28732 55.5212 3.0634L70.4357 29.5509C70.8727 30.327 71.0982 31.2048 71.0897 32.096C71.0812 32.9872 70.8389 33.8605 70.3872 34.6281L54.9695 60.8261C54.5178 61.5937 53.8726 62.2285 53.0987 62.6668C52.3248 63.105 51.4496 63.3313 50.5609 63.3228L20.229 63.0331C19.3403 63.0246 18.4695 62.7817 17.7041 62.3287C16.9387 61.8758 16.3056 61.2287 15.8687 60.4526L0.954233 33.9649C0.517251 33.1888 0.291681 32.3111 0.300194 31.4198C0.308706 30.5286 0.551002 29.6553 1.00273 28.8877L16.4206 2.68992C16.8723 1.92236 17.5175 1.28755 18.2914 0.849284C19.0653 0.411022 19.9405 0.184753 20.8292 0.193219L51.1609 0.482935Z" fill="#DE2180"/>
</svg>
