<svg width="24" height="24" viewBox="0 0 24 24" fill="none" xmlns="http://www.w3.org/2000/svg">
<g clip-path="url(#clip0_22_1018)">
<path d="M12 0C9.62663 0 7.30655 0.703788 5.33316 2.02236C3.35977 3.34094 1.8217 5.21508 0.913451 7.4078C0.00519943 9.60051 -0.232441 12.0133 0.230582 14.3411C0.693605 16.6689 1.83649 18.807 3.51472 20.4853C5.19295 22.1635 7.33115 23.3064 9.65892 23.7694C11.9867 24.2324 14.3995 23.9948 16.5922 23.0865C18.7849 22.1783 20.6591 20.6402 21.9776 18.6668C23.2962 16.6934 24 14.3734 24 12C23.9963 8.81853 22.7309 5.76841 20.4812 3.51877C18.2316 1.26912 15.1815 0.00366459 12 0ZM17.268 15.9628C17.4361 16.1369 17.5292 16.37 17.5271 16.6121C17.525 16.8541 17.4279 17.0856 17.2568 17.2568C17.0856 17.4279 16.8541 17.525 16.6121 17.5271C16.37 17.5292 16.1369 17.4361 15.9628 17.268L12 13.3052L8.03723 17.268C7.86314 17.4361 7.62997 17.5292 7.38794 17.5271C7.14591 17.525 6.91439 17.4279 6.74325 17.2568C6.5721 17.0856 6.47502 16.8541 6.47292 16.6121C6.47082 16.37 6.56386 16.1369 6.732 15.9628L10.6948 12L6.732 8.03723C6.56386 7.86313 6.47082 7.62996 6.47292 7.38794C6.47502 7.14591 6.5721 6.91439 6.74325 6.74324C6.91439 6.5721 7.14591 6.47502 7.38794 6.47292C7.62997 6.47081 7.86314 6.56385 8.03723 6.732L12 10.6948L15.9628 6.732C16.1369 6.56385 16.37 6.47081 16.6121 6.47292C16.8541 6.47502 17.0856 6.5721 17.2568 6.74324C17.4279 6.91439 17.525 7.14591 17.5271 7.38794C17.5292 7.62996 17.4361 7.86313 17.268 8.03723L13.3052 12L17.268 15.9628Z" fill="#DDDDDE"/>
</g>
<defs>
<clipPath id="clip0_22_1018">
<rect width="24" height="24" fill="white"/>
</clipPath>
</defs>
</svg>
