<svg width="14" height="24" viewBox="0 0 14 24" fill="none" xmlns="http://www.w3.org/2000/svg">
<path d="M9.52763 6.6254C9.52763 8.01881 8.39387 9.15304 6.99999 9.15304C5.60612 9.15304 4.47235 8.01881 4.47235 6.6254C4.47235 5.23152 5.60612 4.09729 6.99999 4.09729C8.39387 4.09729 9.52763 5.23152 9.52763 6.6254Z" fill="#DE2180"/>
<path d="M12.4287 2.63072C11.1375 0.983766 9.11 0 6.99997 0C4.88994 0 2.8624 0.983766 1.57119 2.63072C0.114967 4.48809 -0.145611 6.72656 0.619764 8.91394C1.35561 11.0169 2.91819 12.7703 4.19581 14.5775C4.80228 15.4357 5.83854 16.9012 6.46704 17.7908C6.7272 18.1588 7.27273 18.1588 7.53284 17.7908C8.16134 16.9013 9.19761 15.4357 9.80408 14.5775C11.0817 12.7702 12.6443 11.0169 13.3801 8.91394C14.1455 6.72656 13.885 4.48814 12.4287 2.63072ZM6.99997 10.559C4.83087 10.559 3.06626 8.79441 3.06626 6.62536C3.06626 4.45631 4.83087 2.69119 6.99997 2.69119C9.16906 2.69119 10.9337 4.45627 10.9337 6.62536C10.9337 8.79445 9.16906 10.559 6.99997 10.559Z" fill="#DE2180"/>
<path d="M14.0021 19.3178C14.0021 19.5592 13.8784 19.7832 13.6745 19.9121L7.37541 23.8912C7.26062 23.9639 7.1303 24 6.99999 24C6.86968 24 6.73941 23.9639 6.62457 23.8912L0.325412 19.9121C0.121553 19.7832 -0.00219727 19.5592 -0.00219727 19.3178C-0.00219727 19.0765 0.121553 18.8524 0.325412 18.7235L3.83635 16.5057L5.31882 18.6026C5.70408 19.1472 6.33258 19.473 6.99999 19.473C7.6674 19.473 8.2959 19.1472 8.68116 18.6026L9.6368 17.2505L10.1632 16.5057L13.6746 18.7235C13.8784 18.8524 14.0021 19.0764 14.0021 19.3178Z" fill="#DE2180"/>
</svg>
