<svg width="25" height="25" viewBox="0 0 25 25" fill="none" xmlns="http://www.w3.org/2000/svg">
<path d="M21.1096 3.5257C18.9211 1.50857 16.1989 0.5 12.948 0.5C9.53062 0.5 6.61753 1.64565 4.21361 3.94186C1.80969 6.23807 0.605286 9.09241 0.605286 12.5098C0.605286 15.7852 1.75094 18.6004 4.03735 20.9602C6.33356 23.3201 9.41802 24.5 13.3005 24.5C15.6408 24.5 17.937 24.0202 20.1891 23.0557C20.9235 22.7423 21.2809 21.9002 20.9823 21.161C20.6738 20.3972 19.8023 20.0447 19.0435 20.3678C17.0851 21.2099 15.1659 21.631 13.2956 21.631C10.3189 21.631 8.01287 20.7252 6.37762 18.9088C4.74727 17.0973 3.92964 14.9676 3.92964 12.5245C3.92964 9.87087 4.80602 7.65789 6.55388 5.88066C8.29684 4.10832 10.4462 3.21726 12.9921 3.21726C15.3372 3.21726 17.3201 3.94676 18.9358 5.40575C20.5514 6.86475 21.3593 8.70073 21.3593 10.9137C21.3593 12.4266 20.9872 13.6897 20.2479 14.6934C19.5086 15.702 18.7399 16.2013 17.9419 16.2013C17.511 16.2013 17.2956 15.9712 17.2956 15.5061C17.2956 15.1291 17.325 14.6885 17.3788 14.1793L18.2895 6.73256H15.1561L14.9553 7.46206C14.1573 6.81089 13.2809 6.48286 12.3311 6.48286C10.8232 6.48286 9.53062 7.08507 8.45841 8.28458C7.3813 9.48409 6.84763 11.0312 6.84763 12.9211C6.84763 14.7668 7.32254 16.2601 8.27726 17.3911C9.23197 18.5269 10.3776 19.09 11.7191 19.09C12.9186 19.09 13.9419 18.5857 14.7938 17.582C15.4352 18.5465 16.3801 19.0263 17.6285 19.0263C19.4645 19.0263 21.0508 18.2283 22.3874 16.6273C23.724 15.0312 24.3948 13.1022 24.3948 10.8452C24.3948 7.98592 23.303 5.54284 21.1096 3.5257ZM13.8929 14.7913C13.3397 15.5355 12.6787 15.9125 11.9101 15.9125C11.3862 15.9125 10.9651 15.6383 10.6469 15.09C10.3238 14.5416 10.1622 13.8611 10.1622 13.0435C10.1622 12.0349 10.3874 11.2222 10.8378 10.6053C11.2883 9.98837 11.8464 9.67503 12.5123 9.67503C13.09 9.67503 13.6041 9.90514 14.0545 10.3703C14.5049 10.8354 14.7301 11.4523 14.7301 12.2258C14.7252 13.1903 14.4462 14.0422 13.8929 14.7913Z" fill="#DE2180"/>
</svg>
