<svg width="25" height="25" viewBox="0 0 25 25" fill="none" xmlns="http://www.w3.org/2000/svg">
<g clip-path="url(#clip0_19_368)">
<path d="M22.8652 16.4607C21.6461 15.4809 20.5278 15.0046 19.4463 15.0046C17.8819 15.0046 16.7555 15.9998 15.7356 17.0193C15.6184 17.1367 15.4764 17.1914 15.2888 17.1914C14.4295 17.1915 12.9177 16.1153 10.7954 13.9928C8.29867 11.4959 7.35469 9.90778 7.98944 9.27278C9.71017 7.55263 10.2474 5.82823 7.6128 2.55174C6.66966 1.37789 5.7469 0.807373 4.79181 0.807373C3.50377 0.807373 2.52462 1.83697 1.66075 2.74545C1.5114 2.90249 1.37031 3.05084 1.23199 3.18916C0.255599 4.16547 0.2561 6.295 1.23341 8.88595C2.30569 11.7287 4.42285 14.8212 7.19498 17.5938C9.3388 19.7374 11.6714 21.4698 13.9407 22.633C15.922 23.6486 17.8438 24.1927 19.3521 24.1927C19.3523 24.1927 19.3524 24.1927 19.3527 24.1927C20.2966 24.1927 21.0633 23.9868 21.5697 23.568C22.5983 22.7176 24.5128 21.1424 24.5 19.2713C24.493 18.2678 23.9431 17.3273 22.8652 16.4607Z" fill="#DE2180"/>
</g>
<defs>
<clipPath id="clip0_19_368">
<rect width="24" height="24" fill="white" transform="translate(0.5 0.5)"/>
</clipPath>
</defs>
</svg>
