<svg width="24" height="24" viewBox="0 0 24 24" fill="none" xmlns="http://www.w3.org/2000/svg">
<g clip-path="url(#clip0_1_2741)">
<path d="M12 0C5.37224 0 0 5.37224 0 12C0 18.6278 5.37224 24 12 24C18.6278 24 24 18.6278 24 12C24 5.37224 18.6278 0 12 0ZM16.7947 7.82549C16.7947 7.82549 11.5013 17.0453 11.4098 17.1307C11.1075 17.4142 10.6328 17.3985 10.35 17.0962L6.92102 13.9335C6.63753 13.6313 6.65325 13.1565 6.95553 12.873C7.2578 12.5903 7.73251 12.6053 8.01526 12.9075L10.6987 15.3825L15.495 7.07475C15.702 6.71624 16.161 6.59326 16.5195 6.80024C16.8787 7.008 17.0018 7.46702 16.7947 7.82549Z" fill="#DE2180"/>
</g>
<defs>
<clipPath id="clip0_1_2741">
<rect width="24" height="24" fill="white"/>
</clipPath>
</defs>
</svg>
