<svg width="24" height="24" viewBox="0 0 24 24" fill="none" xmlns="http://www.w3.org/2000/svg">
<path d="M12 0C5.40891 0 0 5.40891 0 12C0 18.5911 5.40891 24 12 24C18.5911 24 24 18.5911 24 12C24 5.40891 18.5911 0 12 0ZM12 20.4375C11.2233 20.4375 10.5938 19.8079 10.5938 19.0312C10.5938 18.2546 11.2233 17.625 12 17.625C12.7767 17.625 13.4062 18.2546 13.4062 19.0312C13.4062 19.8079 12.7767 20.4375 12 20.4375ZM14.4918 11.1843C14.0867 11.4823 13.4062 12.1181 13.4062 13.0361V13.4062C13.4062 14.1828 12.7766 14.8125 12 14.8125C11.2234 14.8125 10.5938 14.1828 10.5938 13.4062V13.0361C10.5938 11.4603 11.4081 9.95859 12.8281 8.91694C13.1955 8.64713 13.4062 8.23373 13.4062 7.78125C13.4062 7.00603 12.7752 6.375 12 6.375C11.2248 6.375 10.5938 7.00603 10.5938 7.78125C10.5938 8.55783 9.96408 9.1875 9.1875 9.1875C8.41092 9.1875 7.78125 8.55783 7.78125 7.78125C7.78125 5.45489 9.67364 3.5625 12 3.5625C14.3264 3.5625 16.2188 5.45489 16.2188 7.78125C16.2188 9.11883 15.5733 10.3912 14.4918 11.1843Z" fill="#66696E"/>
</svg>
