<svg width="257" height="278" viewBox="0 0 257 278" fill="none" xmlns="http://www.w3.org/2000/svg">
<path fill-rule="evenodd" clip-rule="evenodd" d="M248.409 72.4285C251.26 74.4398 253.529 77.1683 254.99 80.3396C256.45 83.5109 257.05 87.0134 256.728 90.495L245.76 209.322C245.438 212.803 244.207 216.141 242.19 219C240.173 221.859 237.441 224.138 234.269 225.608L126 275.788C122.828 277.258 119.327 277.868 115.85 277.555C112.373 277.243 109.041 276.02 106.19 274.009L8.89093 205.362C6.04004 203.35 3.77032 200.622 2.3099 197.45C0.849479 194.279 0.249823 190.777 0.571217 187.295L11.5403 68.4679C11.8617 64.9863 13.0927 61.6483 15.1098 58.7894C17.1268 55.9305 19.8587 53.6514 23.0309 52.1812L131.3 2.00263C134.472 0.532439 137.973 -0.0771164 141.45 0.235231C144.928 0.547579 148.259 1.77082 151.11 3.78201L248.409 72.4285Z" fill="#FFEFF6"/>
</svg>
